<?xml version="1.0" ?><!DOCTYPE svg  PUBLIC '-//W3C//DTD SVG 1.1//EN'  'http://www.w3.org/Graphics/SVG/1.1/DTD/svg11.dtd'><svg height="512px" style="enable-background:new 0 0 512 512;" version="1.1" viewBox="0 0 512 512" width="512px" xml:space="preserve" xmlns="http://www.w3.org/2000/svg" xmlns:xlink="http://www.w3.org/1999/xlink"><g id="_x39_1-discord"><g><path d="M447.249,82.455V474.57c-55.065-48.661-37.454-32.553-101.418-92.018L350,422.987H109.557    c-24.698,0-44.806-20.106-44.806-45.026V82.455c0-24.917,20.107-45.025,44.806-45.025H402.44    C427.14,37.43,447.249,57.538,447.249,82.455z" style="fill:#8A9CFE;"/><path d="M353.481,162.233c-31.474-23.605-61.418-22.95-61.418-22.95l-3.06,3.498    c37.157,11.365,54.425,27.758,54.425,27.758c-51.921-28.456-112.91-28.46-163.273-6.338c-8.088,3.715-12.896,6.338-12.896,6.338    s18.142-17.267,57.485-28.632l-2.185-2.624c0,0-29.945-0.655-61.419,22.95c0,0-31.474,57.047-31.474,127.426    c0,0,18.361,31.692,66.663,33.223c0,0,8.088-9.834,14.645-18.142c-27.759-8.306-38.249-25.789-38.249-25.789    c3.215,2.248,8.517,5.168,8.961,5.463c36.892,20.662,89.295,27.43,136.388,7.65c7.648-2.841,16.174-6.995,25.135-12.896    c0,0-10.929,17.924-39.562,26.01c6.559,8.305,14.427,17.703,14.427,17.703c48.304-1.53,66.881-33.223,66.881-33.223    C384.955,219.28,353.481,162.233,353.481,162.233z M216.438,269.333c-12.24,0-22.295-10.928-22.295-24.262    c0-13.333,9.836-24.261,22.295-24.261c12.458,0,22.513,10.928,22.294,24.261C238.732,258.405,228.896,269.333,216.438,269.333z     M296.216,269.333c-12.239,0-22.294-10.928-22.294-24.262c0-13.333,9.836-24.261,22.294-24.261    c12.459,0,22.295,10.928,22.295,24.261C318.511,258.405,308.675,269.333,296.216,269.333z" style="fill:#FDFDFD;"/></g></g><g id="Layer_1"/></svg>