<?xml version="1.0" ?><!DOCTYPE svg  PUBLIC '-//W3C//DTD SVG 1.1//EN'  'http://www.w3.org/Graphics/SVG/1.1/DTD/svg11.dtd'><svg height="512px" id="形状_2_1_" style="enable-background:new 0 0 512 512;" version="1.1" viewBox="0 0 512 512" width="512px" xml:space="preserve" xmlns="http://www.w3.org/2000/svg" xmlns:xlink="http://www.w3.org/1999/xlink"><g id="形状_2"><g><path d="M485.98,113.141c-16.923,7.506-35.109,12.578-54.197,14.858    c19.48-11.679,34.445-30.171,41.49-52.208c-18.234,10.814-38.43,18.668-59.925,22.899c-17.213-18.341-41.738-29.799-68.88-29.799    c-52.114,0-94.368,42.25-94.368,94.364c0,7.396,0.834,14.598,2.444,21.505c-78.427-3.936-147.962-41.504-194.504-98.597    c-8.123,13.937-12.777,30.146-12.777,47.441c0,32.739,16.659,61.623,41.98,78.546c-15.469-0.491-30.02-4.735-42.742-11.804    c-0.009,0.395-0.009,0.788-0.009,1.188c0,45.721,32.529,83.859,75.698,92.531c-7.918,2.156-16.255,3.311-24.861,3.311    c-6.081,0-11.992-0.593-17.755-1.693c12.009,37.488,46.858,64.773,88.153,65.533c-32.296,25.312-72.985,40.396-117.198,40.396    c-7.617,0-15.128-0.446-22.511-1.32c41.762,26.775,91.365,42.4,144.655,42.4c173.574,0,268.493-143.794,268.493-268.496    c0-4.091-0.092-8.16-0.273-12.208C457.332,148.684,473.33,132.064,485.98,113.141z" style="fill-rule:evenodd;clip-rule:evenodd;fill:#2CA7E0;"/></g></g></svg>